<?xml version="1.0" encoding="UTF-8"?>
<svg xmlns="http://www.w3.org/2000/svg" xmlns:xlink="http://www.w3.org/1999/xlink" width="3000" height="3000" viewBox="0 0 3000 3000">
<path fill-rule="evenodd" fill="rgb(100%, 100%, 100%)" fill-opacity="1" d="M 1138.378906 994.351562 C 1138.378906 994.351562 1094.710938 994.351562 1079.109375 1001.929688 C 1063.511719 1009.5 1041.21875 1025.101562 1031.421875 1029.558594 C 1021.609375 1034.019531 992.199219 1040.261719 976.152344 1046.488281 C 960.109375 1052.730469 935.152344 1059.421875 916.878906 1075.910156 C 880.144531 1109.058594 733.417969 1282.878906 714.984375 1331.730469 C 710.527344 1343.539062 708.746094 1352.011719 709.636719 1358.921875 C 710.527344 1365.828125 718.328125 1375.859375 718.773438 1379.421875 C 719.21875 1382.988281 718.4375 1403.050781 721.671875 1409.058594 C 724.898438 1415.078125 727.128906 1417.371094 727.910156 1420.210938 C 728.6875 1423.039062 728.566406 1427.019531 728.800781 1428.339844 C 743.953125 1514.210938 882.207031 1535.648438 934.039062 1558.921875 C 944.957031 1563.820312 955.65625 1568.511719 960.113281 1576.75 C 964.566406 1585 962.339844 1603.488281 962.785156 1611.738281 C 982.335938 1973.351562 1204.789062 2120.929688 1204.789062 2120.929688 C 1211.929688 2133.410156 1236.878906 2262.65625 1230.640625 2298.3125 C 1224.410156 2333.96875 1219.949219 2337.980469 1207.46875 2349.566406 C 1194.988281 2361.152344 1158.671875 2375.859375 1150.421875 2387.003906 C 1142.179688 2398.144531 1133.261719 2409.285156 1127.921875 2418.425781 C 1122.570312 2427.5625 1117.890625 2441.824219 1117.441406 2444.050781 C 1117 2446.28125 1113.878906 2452.296875 1116.328125 2458.535156 C 1118.78125 2464.777344 1125.691406 2467.003906 1125.691406 2467.003906 C 1125.691406 2467.003906 1132.820312 2471.015625 1136.160156 2471.460938 C 1139.5 2471.90625 1173.378906 2469.789062 1188.078125 2471.460938 C 1202.789062 2473.132812 1238 2471.523438 1241.121094 2471.523438 C 1244.238281 2471.523438 1245.578125 2470.902344 1245.578125 2470.902344 C 1245.578125 2470.902344 1246.910156 2472.21875 1257.828125 2472.21875 C 1268.75 2472.21875 1333.378906 2472.21875 1333.378906 2472.21875 C 1333.378906 2472.21875 1348.640625 2479.925781 1366.019531 2479.925781 C 1383.410156 2479.925781 1405.710938 2479.925781 1426.640625 2479.925781 C 1447.558594 2479.925781 1603.351562 2479.925781 1613.601562 2479.925781 C 1623.851562 2479.925781 1625.410156 2478.144531 1626.300781 2473.6875 C 1627.191406 2469.230469 1621.839844 2466.109375 1620.058594 2459.425781 C 1618.28125 2452.738281 1623.851562 2399.257812 1623.851562 2399.257812 C 1623.851562 2399.257812 1640.789062 2394.355469 1661.058594 2398.589844 C 1681.339844 2402.820312 1706.300781 2409.0625 1716.78125 2414.410156 C 1727.25 2419.757812 1757.558594 2434.574219 1757.558594 2434.574219 C 1757.558594 2434.574219 1756.441406 2439.8125 1756.328125 2441.929688 C 1756.21875 2444.046875 1756.21875 2444.046875 1756.21875 2444.046875 L 1756.441406 2446.164062 C 1756.441406 2446.164062 1744.070312 2444.828125 1739.28125 2446.722656 C 1734.488281 2448.617188 1724.238281 2455.859375 1722.679688 2459.199219 C 1721.121094 2462.542969 1721.570312 2472.683594 1724.351562 2475.578125 C 1727.140625 2478.476562 1734.488281 2479.925781 1734.488281 2479.925781 C 1734.488281 2479.925781 1781.070312 2479.925781 1785.96875 2479.925781 C 1790.871094 2479.925781 1798.449219 2475.355469 1798.449219 2475.355469 C 1798.449219 2475.355469 1810.929688 2482.488281 1819.390625 2482.488281 C 1827.859375 2482.488281 1982.289062 2485.382812 1986.53125 2482.488281 C 1990.761719 2479.59375 1994.328125 2477.585938 1994.328125 2477.585938 C 1994.328125 2477.585938 2036.441406 2481.152344 2041.121094 2479.371094 C 2045.800781 2477.585938 2048.03125 2474.910156 2048.03125 2474.910156 C 2048.03125 2474.910156 2111.988281 2478.253906 2122.238281 2473.796875 C 2132.488281 2469.339844 2142.289062 2455.972656 2146.308594 2445.273438 C 2150.320312 2434.578125 2171.710938 2403.824219 2179.730469 2395.359375 C 2484.640625 2073.492188 2102.890625 1338.21875 1730.921875 1304.761719 C 1646.691406 1297.191406 1558 1312.339844 1516.101562 1322.140625 C 1474.210938 1331.949219 1447.558594 1331.949219 1447.558594 1331.949219 C 1447.558594 1331.949219 1425.179688 1273.121094 1411.808594 1248.160156 C 1398.441406 1223.199219 1360.109375 1192 1360.109375 1192 C 1360.109375 1192 1385.070312 1169.71875 1394.871094 1146.539062 C 1404.679688 1123.371094 1403.789062 1071.671875 1418.050781 1060.078125 C 1432.308594 1048.488281 1437.851562 1041.359375 1447.558594 1036.910156 C 1565.21875 982.898438 1715.359375 412.800781 1553.539062 534.171875 C 1539.269531 544.871094 1524.121094 565.371094 1524.121094 565.371094 C 1499.859375 467.53125 1393.761719 523.949219 1299.011719 662.449219 C 1201.488281 804.988281 1139.058594 989.988281 1138.378906 994.351562 "/>
</svg>
